<?xml version="1.0" encoding="UTF-8"?>
<svg version="1.1" xmlns="http://www.w3.org/2000/svg" width="512" height="512">
<path d="M0 0 C1.01790619 0.00215515 2.03581238 0.0043103 3.08456421 0.00653076 C17.69363523 0.05620146 32.02575853 0.30709809 46.375 3.3125 C47.34985352 3.51117676 48.32470703 3.70985352 49.32910156 3.91455078 C97.7109774 14.03517194 141.69928269 35.9516877 177.375 70.3125 C178.3640332 71.26068604 178.3640332 71.26068604 179.37304688 72.22802734 C188.86130305 81.37247479 197.6012044 90.66984009 205.375 101.3125 C206.23306152 102.46355017 207.09113451 103.61459177 207.94921875 104.765625 C213.98736829 112.95680614 219.34595521 121.47054105 224.375 130.3125 C224.73948242 130.94430176 225.10396484 131.57610352 225.47949219 132.22705078 C247.08534998 169.97532572 256.85198095 212.74189997 256.6875 255.9375 C256.68534485 256.95540619 256.6831897 257.97331238 256.68096924 259.02206421 C256.63129854 273.63113523 256.38040191 287.96325853 253.375 302.3125 C253.07698486 303.77478027 253.07698486 303.77478027 252.77294922 305.26660156 C242.65232806 353.6484774 220.7358123 397.63678269 186.375 433.3125 C185.74287598 433.97185547 185.11075195 434.63121094 184.45947266 435.31054688 C175.31502521 444.79880305 166.01765991 453.5387044 155.375 461.3125 C154.22394983 462.17056152 153.07290823 463.02863451 151.921875 463.88671875 C143.73224019 469.92427396 135.22961724 475.30707302 126.375 480.3125 C125.66778809 480.7146875 124.96057617 481.116875 124.23193359 481.53125 C101.09654164 494.5566741 75.92537591 503.30551461 49.9375 508.625 C49.21860596 508.77235596 48.49971191 508.91971191 47.7590332 509.0715332 C33.08339502 511.86090125 18.55831162 512.66142619 3.64770508 512.62817383 C0.70811513 512.6250221 -2.2304558 512.64854926 -5.16992188 512.67382812 C-18.54306192 512.71848737 -31.43916711 511.51301542 -44.625 509.3125 C-46.33055054 509.03031616 -46.33055054 509.03031616 -48.07055664 508.74243164 C-91.33802759 500.97044532 -132.38793216 480.98345309 -165.625 452.3125 C-166.37007813 451.67828125 -167.11515625 451.0440625 -167.8828125 450.390625 C-181.38779833 438.57948485 -194.05918743 425.82889772 -204.625 411.3125 C-205.48149066 410.16255169 -206.33826433 409.01281411 -207.1953125 407.86328125 C-213.23534209 399.67315742 -218.61867614 391.16870382 -223.625 382.3125 C-224.0271875 381.60528809 -224.429375 380.89807617 -224.84375 380.16943359 C-237.8691741 357.03404164 -246.61801461 331.86287591 -251.9375 305.875 C-252.08485596 305.15610596 -252.23221191 304.43721191 -252.3840332 303.6965332 C-255.35789088 288.05024391 -255.99800362 272.57681954 -255.9375 256.6875 C-255.93534485 255.66959381 -255.9331897 254.65168762 -255.93096924 253.60293579 C-255.88129854 238.99386477 -255.63040191 224.66174147 -252.625 210.3125 C-252.42632324 209.33764648 -252.22764648 208.36279297 -252.02294922 207.35839844 C-241.90232806 158.9765226 -219.9858123 114.98821731 -185.625 79.3125 C-184.99287598 78.65314453 -184.36075195 77.99378906 -183.70947266 77.31445312 C-174.56502521 67.82619695 -165.26765991 59.0862956 -154.625 51.3125 C-153.47394983 50.45443848 -152.32290823 49.59636549 -151.171875 48.73828125 C-142.98224019 42.70072604 -134.47961724 37.31792698 -125.625 32.3125 C-124.91778809 31.9103125 -124.21057617 31.508125 -123.48193359 31.09375 C-100.34654164 18.0683259 -75.17537591 9.31948539 -49.1875 4 C-48.46860596 3.85264404 -47.74971191 3.70528809 -47.0090332 3.5534668 C-31.36274391 0.57960912 -15.88931954 -0.06050362 0 0 Z " fill="#0077DB" transform="translate(255.625,-0.3125)"/>
<path d="M0 0 C19.99065931 16.27265134 35.90154053 36.28180993 43.25 61.3125 C43.62125 62.55386719 43.9925 63.79523438 44.375 65.07421875 C52.01968467 93.11671316 47.1574154 123.50971521 32.8828125 148.61108398 C15.59273553 177.44154208 -12.26713289 198.53084754 -44.76171875 207.3515625 C-66.52317467 212.76625801 -88.62503605 212.79561402 -110.62963867 208.70141602 C-111.32935791 208.57307373 -112.02907715 208.44473145 -112.75 208.3125 C-113.72066406 208.08183838 -114.69132812 207.85117676 -115.69140625 207.61352539 C-119.33574335 207.25485141 -120.66065262 207.88360884 -123.76953125 209.7421875 C-124.70192627 210.28657471 -125.63432129 210.83096191 -126.5949707 211.3918457 C-128.06389771 212.28069458 -128.06389771 212.28069458 -129.5625 213.1875 C-131.61353948 214.38850319 -133.66563335 215.58770744 -135.71875 216.78515625 C-136.73324219 217.38215332 -137.74773437 217.97915039 -138.79296875 218.59423828 C-142.99774616 221.03753612 -147.26405603 223.35154417 -151.5625 225.625 C-152.26673096 226.00317871 -152.97096191 226.38135742 -153.6965332 226.77099609 C-158.5041813 229.3125 -158.5041813 229.3125 -160.75 229.3125 C-160.70697754 228.04245117 -160.66395508 226.77240234 -160.61962891 225.46386719 C-160.4772683 220.69994244 -160.42932445 215.93872745 -160.40820312 211.17285156 C-160.38629251 209.12034241 -160.33960488 207.06792904 -160.26660156 205.01660156 C-159.46034252 192.36086288 -159.46034252 192.36086288 -164.75341797 181.43920898 C-167.62206887 178.81916902 -170.72778232 176.69234776 -173.98524475 174.58935547 C-192.68479283 161.05964916 -203.87091652 132.86104606 -207.92285156 110.99267578 C-210.49599207 94.43251005 -209.73391374 77.3148836 -204.75 61.3125 C-204.53569336 60.62365723 -204.32138672 59.93481445 -204.10058594 59.22509766 C-193.41441852 26.08553479 -168.88636467 2.29965234 -138.4609375 -13.3828125 C-130.77119495 -17.10606984 -123.01551892 -19.57875713 -114.75 -21.6875 C-113.65945312 -21.97625 -112.56890625 -22.265 -111.4453125 -22.5625 C-74.2488029 -32.20947506 -30.83573677 -22.71112475 0 0 Z " fill="#FEFEFE" transform="translate(336.75,153.6875)"/>
<path d="M0 0 C4.33413222 0.45832203 6.05150213 2.94412688 8.8125 6.125 C13.94158159 11.93260239 19.3404155 17.41076857 24.87231445 22.83447266 C28.1546648 26.07289596 31.20894529 29.31356935 34 33 C38.14128315 31.72701932 41.77049614 30.17498763 45.54296875 28.05078125 C46.60451172 27.456604 47.66605469 26.86242676 48.75976562 26.25024414 C49.89091797 25.61078857 51.02207031 24.97133301 52.1875 24.3125 C53.37270516 23.64839694 54.55825801 22.98491405 55.74414062 22.32202148 C60.78689596 19.50095892 65.82133761 16.6651854 70.85400391 13.82617188 C73.97037956 12.06837456 77.08994008 10.31634282 80.21133423 8.56747437 C81.97865245 7.57449427 83.74164463 6.57411802 85.50463867 5.57348633 C86.57560791 4.9730249 87.64657715 4.37256348 88.75 3.75390625 C89.69359375 3.22095947 90.6371875 2.6880127 91.609375 2.13891602 C94 1 94 1 97 1 C95.60587891 2.37671875 95.60587891 2.37671875 94.18359375 3.78125 C85.65506118 12.22332273 85.65506118 12.22332273 77.63671875 21.14453125 C74.96705865 24.17099557 72.05539322 26.95209943 69.18359375 29.78515625 C67.22025329 31.77659461 65.37920331 33.81302578 63.5625 35.9375 C60.0553056 40.03058303 56.24274842 43.77224704 52.41015625 47.55859375 C49.73400514 50.26944374 47.25840022 53.10187208 44.78515625 55.99609375 C42.02442385 59.09512159 39.0437081 61.96543662 36.08984375 64.87890625 C33.54300035 67.46383329 31.25674199 70.16087298 29 73 C25.08790692 71.40584497 22.62781914 68.86106668 19.6875 65.875 C19.20112061 65.38217529 18.71474121 64.88935059 18.21362305 64.3815918 C14.90294366 61.00060099 11.75929051 57.51029995 8.69140625 53.91015625 C6.19387802 51.08962206 3.50276486 48.47867638 0.796875 45.859375 C-0.99004196 44.01030441 -2.50332353 42.08795607 -4 40 C-9.88069734 41.60558513 -14.77344563 44.58486186 -20 47.625 C-29.62361162 53.14444759 -39.33731701 58.46615306 -49.125 63.6875 C-49.78097168 64.03878967 -50.43694336 64.39007935 -51.11279297 64.75201416 C-52.99286914 65.75827952 -54.87493999 66.76069732 -56.7578125 67.76171875 C-57.8420752 68.33881592 -58.92633789 68.91591309 -60.04345703 69.51049805 C-62.65906125 70.82823556 -65.26234924 71.96506537 -68 73 C-63.9581051 68.08418187 -59.63273495 63.59166158 -55.10253906 59.12207031 C-51.83549109 55.8816378 -48.79208533 52.52597056 -45.80859375 49.02734375 C-42.8259411 45.6839383 -39.59643308 42.5892363 -36.41015625 39.44140625 C-33.73145468 36.72797273 -31.25391882 33.89222977 -28.77734375 30.99609375 C-26.05144841 27.9347036 -23.10858642 25.10034836 -20.19140625 22.22265625 C-17.58409155 19.57816059 -15.17602928 16.79997825 -12.76171875 13.98046875 C-10.23555411 11.140634 -7.52687242 8.5020125 -4.796875 5.859375 C-3.00995804 4.01030441 -1.49667647 2.08795607 0 0 Z " fill="#0378DB" transform="translate(241,214)"/>
</svg>
